<svg xmlns="http://www.w3.org/2000/svg" xmlns:xlink="http://www.w3.org/1999/xlink" width="500" zoomAndPan="magnify" viewBox="0 0 375 374.999991" height="500" preserveAspectRatio="xMidYMid meet" version="1.0"><defs><clipPath id="67edefe178"><path d="M 104 29.742188 L 286.863281 29.742188 L 286.863281 345.492188 L 104 345.492188 Z M 104 29.742188 " clip-rule="nonzero"/></clipPath></defs><rect x="-37.5" width="450" fill="#ffffff" y="-37.499999" height="449.999989" fill-opacity="1"/><rect x="-37.5" width="450" fill="#ffffff" y="-37.499999" height="449.999989" fill-opacity="1"/><g clip-path="url(#67edefe178)"><path fill="#000000" d="M 286.097656 82.503906 C 174.15625 160.828125 143.015625 242.925781 255.566406 331.742188 C 208.144531 311.371094 167.238281 284.941406 146.578125 240.734375 C 138.691406 274.195312 141.238281 309.84375 146.578125 345.492188 C 88.675781 246.285156 94.679688 140 136.859375 29.742188 C 125.003906 141.375 183.46875 146.875 286.097656 82.503906 Z M 286.097656 82.503906 " fill-opacity="1" fill-rule="nonzero"/></g><path fill="#000000" d="M 216.695312 79.246094 C 216.695312 80.246094 216.644531 81.242188 216.546875 82.238281 C 216.449219 83.234375 216.300781 84.222656 216.109375 85.207031 C 215.914062 86.1875 215.667969 87.15625 215.378906 88.113281 C 215.089844 89.070312 214.753906 90.011719 214.371094 90.9375 C 213.988281 91.863281 213.5625 92.765625 213.089844 93.648438 C 212.617188 94.53125 212.105469 95.386719 211.550781 96.21875 C 210.992188 97.050781 210.398438 97.855469 209.765625 98.628906 C 209.128906 99.402344 208.460938 100.144531 207.753906 100.851562 C 207.046875 101.558594 206.304688 102.230469 205.53125 102.863281 C 204.757812 103.5 203.957031 104.09375 203.125 104.652344 C 202.292969 105.207031 201.4375 105.722656 200.554688 106.191406 C 199.675781 106.664062 198.773438 107.089844 197.847656 107.476562 C 196.925781 107.859375 195.984375 108.195312 195.027344 108.484375 C 194.070312 108.777344 193.101562 109.019531 192.121094 109.214844 C 191.140625 109.410156 190.152344 109.554688 189.15625 109.652344 C 188.164062 109.75 187.164062 109.800781 186.164062 109.800781 C 185.164062 109.800781 184.167969 109.75 183.171875 109.652344 C 182.175781 109.554688 181.191406 109.410156 180.210938 109.214844 C 179.226562 109.019531 178.261719 108.777344 177.304688 108.484375 C 176.347656 108.195312 175.40625 107.859375 174.480469 107.476562 C 173.558594 107.089844 172.65625 106.664062 171.773438 106.191406 C 170.890625 105.722656 170.035156 105.207031 169.203125 104.652344 C 168.371094 104.09375 167.570312 103.5 166.796875 102.863281 C 166.023438 102.230469 165.285156 101.558594 164.578125 100.851562 C 163.871094 100.144531 163.199219 99.402344 162.566406 98.628906 C 161.929688 97.855469 161.335938 97.050781 160.78125 96.21875 C 160.226562 95.386719 159.710938 94.53125 159.242188 93.648438 C 158.769531 92.765625 158.34375 91.863281 157.960938 90.9375 C 157.578125 90.011719 157.242188 89.070312 156.949219 88.113281 C 156.660156 87.15625 156.417969 86.1875 156.222656 85.207031 C 156.027344 84.222656 155.882812 83.234375 155.78125 82.238281 C 155.683594 81.242188 155.636719 80.246094 155.636719 79.246094 C 155.636719 78.242188 155.683594 77.246094 155.78125 76.25 C 155.882812 75.253906 156.027344 74.265625 156.222656 73.28125 C 156.417969 72.300781 156.660156 71.332031 156.949219 70.375 C 157.242188 69.417969 157.578125 68.476562 157.960938 67.550781 C 158.34375 66.625 158.769531 65.722656 159.242188 64.839844 C 159.710938 63.957031 160.226562 63.101562 160.78125 62.269531 C 161.335938 61.4375 161.929688 60.632812 162.566406 59.859375 C 163.199219 59.085938 163.871094 58.34375 164.578125 57.636719 C 165.285156 56.929688 166.023438 56.257812 166.796875 55.625 C 167.570312 54.988281 168.371094 54.394531 169.203125 53.835938 C 170.035156 53.28125 170.890625 52.769531 171.773438 52.296875 C 172.65625 51.824219 173.558594 51.398438 174.480469 51.015625 C 175.40625 50.628906 176.347656 50.292969 177.304688 50.003906 C 178.261719 49.714844 179.226562 49.46875 180.210938 49.273438 C 181.191406 49.078125 182.175781 48.933594 183.171875 48.835938 C 184.167969 48.738281 185.164062 48.6875 186.164062 48.6875 C 187.164062 48.6875 188.164062 48.738281 189.15625 48.835938 C 190.152344 48.933594 191.140625 49.078125 192.121094 49.273438 C 193.101562 49.46875 194.070312 49.714844 195.027344 50.003906 C 195.984375 50.292969 196.925781 50.628906 197.847656 51.015625 C 198.773438 51.398438 199.675781 51.824219 200.554688 52.296875 C 201.4375 52.769531 202.292969 53.28125 203.125 53.835938 C 203.957031 54.394531 204.757812 54.988281 205.53125 55.625 C 206.304688 56.257812 207.046875 56.929688 207.753906 57.636719 C 208.460938 58.34375 209.128906 59.085938 209.765625 59.859375 C 210.398438 60.632812 210.992188 61.4375 211.550781 62.269531 C 212.105469 63.101562 212.617188 63.957031 213.089844 64.839844 C 213.5625 65.722656 213.988281 66.625 214.371094 67.550781 C 214.753906 68.476562 215.089844 69.417969 215.378906 70.375 C 215.667969 71.332031 215.914062 72.300781 216.109375 73.28125 C 216.300781 74.265625 216.449219 75.253906 216.546875 76.25 C 216.644531 77.246094 216.695312 78.242188 216.695312 79.246094 Z M 216.695312 79.246094 " fill-opacity="1" fill-rule="nonzero"/></svg>