<svg xmlns="http://www.w3.org/2000/svg" xmlns:xlink="http://www.w3.org/1999/xlink" width="500" zoomAndPan="magnify" viewBox="0 0 375 374.999991" height="500" preserveAspectRatio="xMidYMid meet" version="1.0"><defs><clipPath id="c077750fc0"><path d="M 80 207 L 295 207 L 295 317.953125 L 80 317.953125 Z M 80 207 " clip-rule="nonzero"/></clipPath></defs><rect x="-37.5" width="450" fill="#ffffff" y="-37.499999" height="449.999989" fill-opacity="1"/><rect x="-37.5" width="450" fill="#ffffff" y="-37.499999" height="449.999989" fill-opacity="1"/><path fill="#231f20" d="M 295.773438 287.34375 L 374.828125 287.34375 C 365.40625 214.589844 329.039062 194.886719 285.585938 194.886719 C 266.609375 194.886719 248.988281 198.625 234.363281 208.925781 C 264.933594 221.011719 285.253906 247 295.773438 287.34375 " fill-opacity="1" fill-rule="nonzero"/><path fill="#231f20" d="M 285.585938 68.675781 C 271.558594 68.675781 258.777344 73.875 248.972656 82.433594 C 257.003906 94.171875 261.691406 108.375 261.691406 123.652344 C 261.691406 139.382812 256.671875 153.949219 248.199219 165.898438 C 258.101562 174.855469 271.175781 180.367188 285.585938 180.367188 C 316.421875 180.367188 341.449219 155.355469 341.449219 124.496094 C 341.449219 93.671875 316.421875 68.675781 285.585938 68.675781 " fill-opacity="1" fill-rule="nonzero"/><path fill="#231f20" d="M 79.210938 287.34375 L 0.164062 287.34375 C 9.574219 214.589844 45.953125 194.886719 89.417969 194.886719 C 108.375 194.886719 125.996094 198.625 140.617188 208.925781 C 110.0625 221.011719 89.742188 247 79.210938 287.34375 " fill-opacity="1" fill-rule="nonzero"/><path fill="#231f20" d="M 89.417969 68.675781 C 103.445312 68.675781 116.203125 73.875 126.023438 82.433594 C 118 94.171875 113.289062 108.375 113.289062 123.652344 C 113.289062 139.382812 118.324219 153.949219 126.804688 165.898438 C 116.890625 174.855469 103.804688 180.367188 89.417969 180.367188 C 58.566406 180.367188 33.539062 155.355469 33.539062 124.496094 C 33.539062 93.671875 58.566406 68.675781 89.417969 68.675781 " fill-opacity="1" fill-rule="nonzero"/><g clip-path="url(#c077750fc0)"><path fill="#231f20" d="M 294.011719 318.019531 C 282.792969 231.1875 239.367188 207.632812 187.5 207.632812 C 135.621094 207.632812 92.210938 231.1875 80.964844 318.019531 L 294.011719 318.019531 " fill-opacity="1" fill-rule="nonzero"/></g><path fill="#231f20" d="M 254.171875 123.652344 C 254.171875 160.453125 224.316406 190.304688 187.5 190.304688 C 150.664062 190.304688 120.832031 160.453125 120.832031 123.652344 C 120.832031 86.851562 150.664062 57.007812 187.5 57.007812 C 224.316406 57.007812 254.171875 86.851562 254.171875 123.652344 " fill-opacity="1" fill-rule="nonzero"/></svg>