<svg xmlns="http://www.w3.org/2000/svg" xmlns:xlink="http://www.w3.org/1999/xlink" width="500" zoomAndPan="magnify" viewBox="0 0 375 374.999991" height="500" preserveAspectRatio="xMidYMid meet" version="1.0"><defs><clipPath id="5147a69c45"><path d="M 75.726562 61.007812 L 299 61.007812 L 299 313.757812 L 75.726562 313.757812 Z M 75.726562 61.007812 " clip-rule="nonzero"/></clipPath></defs><rect x="-37.5" width="450" fill="#ffffff" y="-37.499999" height="449.999989" fill-opacity="1"/><rect x="-37.5" width="450" fill="#ffffff" y="-37.499999" height="449.999989" fill-opacity="1"/><g clip-path="url(#5147a69c45)"><path fill="#000000" d="M 180.320312 104.746094 C 194.210938 113.574219 203.890625 128.296875 205.574219 145.117188 C 211.042969 147.640625 217.355469 149.324219 224.089844 149.324219 C 248.5 149.324219 268.28125 129.558594 268.28125 105.164062 C 268.28125 80.773438 248.5 61.007812 224.089844 61.007812 C 200.101562 61.425781 180.320312 80.773438 180.320312 104.746094 Z M 151.28125 194.742188 C 175.691406 194.742188 195.472656 174.976562 195.472656 150.585938 C 195.472656 126.191406 175.691406 106.425781 151.28125 106.425781 C 126.875 106.425781 107.09375 126.191406 107.09375 150.585938 C 107.09375 174.976562 126.875 194.742188 151.28125 194.742188 Z M 169.800781 197.6875 L 132.34375 197.6875 C 101.203125 197.6875 75.949219 222.917969 75.949219 254.039062 L 75.949219 300.71875 L 78.898438 301.5625 C 108.355469 310.8125 134.449219 313.757812 155.492188 313.757812 C 196.734375 313.757812 220.722656 301.980469 222.40625 301.140625 L 225.351562 299.457031 L 225.773438 299.457031 L 225.773438 254.039062 C 226.195312 222.917969 200.945312 197.6875 169.800781 197.6875 Z M 242.609375 152.265625 L 205.574219 152.265625 C 205.152344 166.984375 198.839844 180.441406 188.738281 190.117188 C 216.515625 198.527344 236.714844 223.757812 236.714844 254.039062 L 236.714844 267.917969 C 273.328125 266.65625 294.371094 256.140625 295.636719 255.722656 L 298.582031 254.039062 L 299 254.039062 L 299 208.621094 C 299 177.5 273.75 152.265625 242.609375 152.265625 Z M 242.609375 152.265625 " fill-opacity="1" fill-rule="nonzero"/></g></svg>