<svg xmlns="http://www.w3.org/2000/svg" xmlns:xlink="http://www.w3.org/1999/xlink" width="500" zoomAndPan="magnify" viewBox="0 0 375 374.999991" height="500" preserveAspectRatio="xMidYMid meet" version="1.0"><rect x="-37.5" width="450" fill="#ffffff" y="-37.499999" height="449.999989" fill-opacity="1"/><rect x="-37.5" width="450" fill="#ffffff" y="-37.499999" height="449.999989" fill-opacity="1"/><path fill="#940c0c" d="M 320.078125 54.917969 C 284.664062 19.503906 237.578125 0 187.496094 0 C 137.414062 0 90.332031 19.503906 54.917969 54.917969 C 19.503906 90.328125 0 137.414062 0 187.496094 C 0 237.578125 19.503906 284.664062 54.917969 320.078125 C 90.332031 355.492188 137.414062 374.992188 187.496094 374.992188 C 237.578125 374.992188 284.664062 355.492188 320.078125 320.078125 C 355.492188 284.664062 374.992188 237.578125 374.992188 187.496094 C 374.992188 137.414062 355.492188 90.328125 320.078125 54.917969 Z M 63.425781 63.425781 C 96.566406 30.285156 140.628906 12.03125 187.496094 12.03125 C 234.367188 12.03125 278.429688 30.285156 311.570312 63.425781 C 344.710938 96.566406 362.960938 140.628906 362.960938 187.496094 C 362.960938 226.457031 350.335938 263.476562 327.042969 293.894531 C 308.503906 267.976562 278.902344 252.660156 246.753906 252.660156 L 128.238281 252.660156 C 96.089844 252.660156 66.488281 267.976562 47.949219 293.894531 C 24.65625 263.472656 12.03125 226.457031 12.03125 187.496094 C 12.03125 140.628906 30.285156 96.566406 63.425781 63.425781 Z M 187.496094 242.777344 C 235.671875 242.777344 274.863281 203.585938 274.863281 155.410156 C 274.863281 107.238281 235.671875 68.046875 187.496094 68.046875 C 139.324219 68.046875 100.132812 107.238281 100.132812 155.410156 C 100.132812 203.585938 139.324219 242.777344 187.496094 242.777344 Z M 187.496094 242.777344 " fill-opacity="1" fill-rule="nonzero"/></svg>